<svg width="20" height="20" viewBox="0 0 20 20" fill="none" xmlns="http://www.w3.org/2000/svg">
<path d="M8.17479 1.68542C8.68212 -0.17285 11.3179 -0.17285 11.8252 1.68542C12.1509 2.87841 13.5148 3.44335 14.5887 2.83009C16.2614 1.87483 18.1252 3.73859 17.1699 5.41132C16.5566 6.4852 17.1216 7.84909 18.3146 8.17479C20.1728 8.68212 20.1728 11.3179 18.3146 11.8252C17.1216 12.1509 16.5566 13.5148 17.1699 14.5887C18.1252 16.2614 16.2614 18.1252 14.5887 17.1699C13.5148 16.5566 12.1509 17.1216 11.8252 18.3146C11.3179 20.1728 8.68212 20.1728 8.17479 18.3146C7.84909 17.1216 6.4852 16.5566 5.41132 17.1699C3.73859 18.1252 1.87483 16.2614 2.83009 14.5887C3.44335 13.5148 2.87841 12.1509 1.68542 11.8252C-0.17285 11.3179 -0.17285 8.68212 1.68542 8.17479C2.87841 7.84909 3.44335 6.4852 2.83009 5.41132C1.87483 3.73859 3.73859 1.87483 5.41132 2.83009C6.4852 3.44335 7.84909 2.87841 8.17479 1.68542Z" fill="white"/>
</svg>
